<svg xmlns="http://www.w3.org/2000/svg" viewBox="0 0 400 160">
  <!-- Outline pass: stroked shapes drawn first, then covered by fills so only the outer edge shows -->
  <g fill="#fbf1dc" stroke="#d9b98a" stroke-width="6">
    <circle cx="70" cy="104" r="44"/>
    <circle cx="132" cy="78" r="54"/>
    <circle cx="200" cy="66" r="60"/>
    <circle cx="268" cy="78" r="54"/>
    <circle cx="330" cy="104" r="44"/>
    <ellipse cx="200" cy="124" rx="192" ry="34"/>
  </g>
  <g fill="#fbf1dc">
    <circle cx="70" cy="104" r="44"/>
    <circle cx="132" cy="78" r="54"/>
    <circle cx="200" cy="66" r="60"/>
    <circle cx="268" cy="78" r="54"/>
    <circle cx="330" cy="104" r="44"/>
    <ellipse cx="200" cy="124" rx="192" ry="34"/>
  </g>
  <!-- Swirls -->
  <g fill="none" stroke="#d9b98a" stroke-width="4" stroke-linecap="round">
    <path d="M96 118 C 96 100, 122 100, 122 116 C 122 128, 106 128, 106 118"/>
    <path d="M186 104 C 186 82, 218 82, 218 102 C 218 116, 198 116, 198 104"/>
    <path d="M280 118 C 280 100, 306 100, 306 116 C 306 128, 290 128, 290 118"/>
    <path d="M40 132 C 60 138, 80 138, 96 132"/>
    <path d="M304 132 C 320 138, 340 138, 360 132"/>
  </g>
</svg>
